# xmcd CD database file
#
# Track frame offsets:
#	150
#	12970
#	27637
#	43372
#	56256
#	71184
#	83120
#	101394
#	115305
#	128438
#	146028
#	157139
#	172639
#	187672
#	201269
#
# Disc length: 2915 seconds
#
# Revision: 1
# Processed by: cddbd v1.5.1PL0 Copyright (c) Steve Scherf et al.
# Submitted via: CDex 1.51
#
DISCID=c90b610f
DTITLE=Johnny Cash - Unearthed  Vol.3 - Redemption Songs
DYEAR=1900
DGENRE=Country
TTITLE0=Johnny Cash - A Singer of Songs
TTITLE1=Johnny Cash - The L and N Don't Stop Here An
TTITLE2=Johnny Cash - Redemption Song (with Joe Stru
TTITLE3=Johnny Cash - Father and Son (with Fiona App
TTITLE4=Johnny Cash - Chattanooga Sugar Babe
TTITLE5=Johnny Cash - He Stopped Loving Her Today
TTITLE6=Johnny Cash - Hard Times
TTITLE7=Johnny Cash - Wichita Lineman
TTITLE8=Johnny Cash - Cindy (with Nick Cave)
TTITLE9=Johnny Cash - Big Iron
TTITLE10=Johnny Cash - Salty Dog
TTITLE11=Johnny Cash - Gentle on My Mind (w Glen Camp
TTITLE12=Johnny Cash - You Are My Sunshine
TTITLE13=Johnny Cash - You'll Never Walk Alone
TTITLE14=Johnny Cash - The Man Comes Around (early ta
EXTD=
EXTT0=
EXTT1=
EXTT2=
EXTT3=
EXTT4=
EXTT5=
EXTT6=
EXTT7=
EXTT8=
EXTT9=
EXTT10=
EXTT11=
EXTT12=
EXTT13=
EXTT14=
PLAYORDER=
